<svg width="91" height="41" viewBox="0 0 91 41" fill="none" xmlns="http://www.w3.org/2000/svg">
<path d="M14.608 37.18C14.024 37.18 13.492 37.084 13.012 36.892C12.532 36.7 12.12 36.42 11.776 36.052C11.432 35.684 11.164 35.232 10.972 34.696C10.788 34.152 10.696 33.532 10.696 32.836C10.696 32.14 10.8 31.524 11.008 30.988C11.224 30.444 11.512 29.988 11.872 29.62C12.232 29.252 12.652 28.972 13.132 28.78C13.612 28.588 14.124 28.492 14.668 28.492C15.012 28.492 15.32 28.516 15.592 28.564C15.872 28.612 16.112 28.668 16.312 28.732C16.52 28.796 16.688 28.86 16.816 28.924C16.944 28.988 17.032 29.036 17.08 29.068L16.744 30.028C16.672 29.98 16.568 29.928 16.432 29.872C16.296 29.816 16.14 29.76 15.964 29.704C15.796 29.648 15.608 29.604 15.4 29.572C15.2 29.532 14.996 29.512 14.788 29.512C14.348 29.512 13.952 29.588 13.6 29.74C13.248 29.892 12.948 30.112 12.7 30.4C12.452 30.688 12.26 31.04 12.124 31.456C11.996 31.864 11.932 32.324 11.932 32.836C11.932 33.332 11.988 33.784 12.1 34.192C12.22 34.6 12.396 34.952 12.628 35.248C12.86 35.536 13.148 35.76 13.492 35.92C13.844 36.08 14.252 36.16 14.716 36.16C15.252 36.16 15.696 36.104 16.048 35.992C16.4 35.88 16.664 35.78 16.84 35.692L17.14 36.652C17.084 36.692 16.984 36.744 16.84 36.808C16.696 36.864 16.516 36.92 16.3 36.976C16.084 37.032 15.832 37.08 15.544 37.12C15.256 37.16 14.944 37.18 14.608 37.18ZM38.0389 37C37.9029 36.64 37.7749 36.288 37.6549 35.944C37.5349 35.592 37.4109 35.236 37.2829 34.876H33.5149L32.7589 37H31.5469C31.8669 36.12 32.1669 35.308 32.4469 34.564C32.7269 33.812 32.9989 33.1 33.2629 32.428C33.5349 31.756 33.8029 31.116 34.0669 30.508C34.3309 29.892 34.6069 29.284 34.8949 28.684H35.9629C36.2509 29.284 36.5269 29.892 36.7909 30.508C37.0549 31.116 37.3189 31.756 37.5829 32.428C37.8549 33.1 38.1309 33.812 38.4109 34.564C38.6909 35.308 38.9909 36.12 39.3109 37H38.0389ZM36.9469 33.916C36.6909 33.22 36.4349 32.548 36.1789 31.9C35.9309 31.244 35.6709 30.616 35.3989 30.016C35.1189 30.616 34.8509 31.244 34.5949 31.9C34.3469 32.548 34.0989 33.22 33.8509 33.916H36.9469ZM54.18 37V28.684H59.196V29.68H55.344V32.188H58.764V33.172H55.344V37H54.18ZM74.3653 37V28.684H79.4413V29.68H75.5293V32.152H79.0093V33.124H75.5293V36.004H79.7413V37H74.3653Z" fill="white"/>
<path d="M11.88 7.14V9.8H7.7V21H4.58V9.8H0.4V7.14H11.88ZM13.8852 21V7.14H23.2452V9.76H17.0052V12.48H22.5452V15.04H17.0052V18.38H23.7052V21H13.8852ZM30.0741 6.98C32.1541 6.98 33.7474 7.35333 34.8541 8.1C35.9607 8.83333 36.5141 9.98 36.5141 11.54C36.5141 12.5133 36.2874 13.3067 35.8341 13.92C35.3941 14.52 34.7541 14.9933 33.9141 15.34C34.1941 15.6867 34.4874 16.0867 34.7941 16.54C35.1007 16.98 35.4007 17.4467 35.6941 17.94C36.0007 18.42 36.2941 18.9267 36.5741 19.46C36.8541 19.98 37.1141 20.4933 37.3541 21H33.8541C33.6007 20.5467 33.3407 20.0867 33.0741 19.62C32.8207 19.1533 32.5541 18.7 32.2741 18.26C32.0074 17.82 31.7407 17.4067 31.4741 17.02C31.2074 16.62 30.9407 16.26 30.6741 15.94H29.1341V21H26.0141V7.34C26.6941 7.20667 27.3941 7.11333 28.1141 7.06C28.8474 7.00667 29.5007 6.98 30.0741 6.98ZM30.2541 9.64C30.0274 9.64 29.8207 9.64667 29.6341 9.66C29.4607 9.67333 29.2941 9.68667 29.1341 9.7V13.46H30.0141C31.1874 13.46 32.0274 13.3133 32.5341 13.02C33.0407 12.7267 33.2941 12.2267 33.2941 11.52C33.2941 10.84 33.0341 10.36 32.5141 10.08C32.0074 9.78667 31.2541 9.64 30.2541 9.64ZM43.4139 6.98C45.4939 6.98 47.0872 7.35333 48.1939 8.1C49.3006 8.83333 49.8539 9.98 49.8539 11.54C49.8539 12.5133 49.6272 13.3067 49.1739 13.92C48.7339 14.52 48.0939 14.9933 47.2539 15.34C47.5339 15.6867 47.8272 16.0867 48.1339 16.54C48.4406 16.98 48.7406 17.4467 49.0339 17.94C49.3406 18.42 49.6339 18.9267 49.9139 19.46C50.1939 19.98 50.4539 20.4933 50.6939 21H47.1939C46.9406 20.5467 46.6806 20.0867 46.4139 19.62C46.1606 19.1533 45.8939 18.7 45.6139 18.26C45.3472 17.82 45.0806 17.4067 44.8139 17.02C44.5472 16.62 44.2806 16.26 44.0139 15.94H42.4739V21H39.3539V7.34C40.0339 7.20667 40.7339 7.11333 41.4539 7.06C42.1872 7.00667 42.8406 6.98 43.4139 6.98ZM43.5939 9.64C43.3672 9.64 43.1606 9.64667 42.9739 9.66C42.8006 9.67333 42.6339 9.68667 42.4739 9.7V13.46H43.3539C44.5272 13.46 45.3672 13.3133 45.8739 13.02C46.3806 12.7267 46.6339 12.2267 46.6339 11.52C46.6339 10.84 46.3739 10.36 45.8539 10.08C45.3472 9.78667 44.5939 9.64 43.5939 9.64ZM62.5988 21C62.4521 20.52 62.2854 20.0267 62.0988 19.52C61.9254 19.0133 61.7521 18.5067 61.5788 18H56.1788C56.0054 18.5067 55.8254 19.0133 55.6388 19.52C55.4654 20.0267 55.3054 20.52 55.1588 21H51.9188C52.4388 19.5067 52.9321 18.1267 53.3988 16.86C53.8654 15.5933 54.3188 14.4 54.7588 13.28C55.2121 12.16 55.6521 11.1 56.0788 10.1C56.5188 9.08667 56.9721 8.1 57.4388 7.14H60.4188C60.8721 8.1 61.3188 9.08667 61.7588 10.1C62.1988 11.1 62.6388 12.16 63.0788 13.28C63.5321 14.4 63.9921 15.5933 64.4588 16.86C64.9254 18.1267 65.4188 19.5067 65.9388 21H62.5988ZM58.8588 10.28C58.7921 10.48 58.6921 10.7533 58.5588 11.1C58.4254 11.4467 58.2721 11.8467 58.0988 12.3C57.9254 12.7533 57.7321 13.2533 57.5188 13.8C57.3188 14.3467 57.1121 14.92 56.8988 15.52H60.8388C60.6254 14.92 60.4188 14.3467 60.2188 13.8C60.0188 13.2533 59.8254 12.7533 59.6388 12.3C59.4654 11.8467 59.3121 11.4467 59.1788 11.1C59.0454 10.7533 58.9388 10.48 58.8588 10.28ZM73.545 21.28C71.2917 21.28 69.5717 20.6533 68.385 19.4C67.2117 18.1467 66.625 16.3667 66.625 14.06C66.625 12.9133 66.805 11.8933 67.165 11C67.525 10.0933 68.0183 9.33333 68.645 8.72C69.2717 8.09333 70.0183 7.62 70.885 7.3C71.7517 6.98 72.6917 6.82 73.705 6.82C74.2917 6.82 74.825 6.86667 75.305 6.96C75.785 7.04 76.205 7.14 76.565 7.26C76.925 7.36667 77.225 7.48 77.465 7.6C77.705 7.72 77.8783 7.81333 77.985 7.88L77.085 10.4C76.6583 10.1733 76.1583 9.98 75.585 9.82C75.025 9.66 74.385 9.58 73.665 9.58C73.185 9.58 72.7117 9.66 72.245 9.82C71.7917 9.98 71.385 10.24 71.025 10.6C70.6783 10.9467 70.3983 11.4 70.185 11.96C69.9717 12.52 69.865 13.2 69.865 14C69.865 14.64 69.9317 15.24 70.065 15.8C70.2117 16.3467 70.4383 16.82 70.745 17.22C71.065 17.62 71.4783 17.94 71.985 18.18C72.4917 18.4067 73.105 18.52 73.825 18.52C74.2783 18.52 74.685 18.4933 75.045 18.44C75.405 18.3867 75.725 18.3267 76.005 18.26C76.285 18.18 76.5317 18.0933 76.745 18C76.9583 17.9067 77.1517 17.82 77.325 17.74L78.185 20.24C77.745 20.5067 77.125 20.7467 76.325 20.96C75.525 21.1733 74.5983 21.28 73.545 21.28ZM80.1938 21V7.14H89.5538V9.76H83.3138V12.48H88.8538V15.04H83.3138V18.38H90.0138V21H80.1938Z" fill="white"/>
</svg>
